<svg width="750" height="104" viewBox="0 0 750 104" fill="none" xmlns="http://www.w3.org/2000/svg">
<g clip-path="url(#clip0)">
<rect y="65.5625" width="750" height="81.1914" fill="#000B50"/>
<path d="M750.002 65.5601V8.93162L737.689 12.2812C724.718 15.8097 711.007 15.5345 698.188 11.4883C684.456 7.15361 669.721 7.15361 655.988 11.4883L648.808 13.7549C640.554 16.3601 631.951 17.6858 623.296 17.6858H618.167C605.287 17.6858 592.677 21.3838 581.837 28.3403C569.623 36.1785 555.201 39.8563 540.725 38.8247L517.426 37.1645C504.208 36.2225 490.925 37.5487 478.154 41.0857L472.91 42.538C463.01 45.2798 452.699 46.2268 442.466 45.3342C431.919 44.4143 421.298 44.9081 410.882 46.8026L404.024 48.0501C393.118 50.0337 382.773 54.3584 373.7 60.7262L369.141 65.5601H750.002Z" fill="#266B73"/>
<path d="M-0.521942 78.8458V10.9798C26.7998 3.6222 55.4676 2.78391 83.1725 8.5324L103.666 12.7845L124.834 19.6326C144.078 25.8584 164.18 29.0291 184.406 29.0291C194.993 29.0291 205.561 29.8977 216.006 31.6262L230.876 34.0871C246.806 36.7233 262.98 37.568 279.098 36.6055C291.649 35.856 304.204 37.9997 315.795 42.8714L334.113 50.5703L356.318 58.6759C370.543 63.8684 385.782 65.6711 400.825 63.9406C411.826 62.6752 422.961 63.2958 433.753 65.7757L469.072 73.8918C471.357 74.4169 472.977 76.4508 472.977 78.7955C472.977 78.8233 472.954 78.8458 472.926 78.8458H-0.521942Z" fill="#377982"/>
<path d="M619.953 29C620.052 49.8705 620.19 91.9154 619.953 93.1313H654.024L619.953 29Z" fill="white"/>
<path d="M617.766 49.0156C617.692 63.3873 617.589 92.3398 617.766 93.1771H592.265L617.766 49.0156Z" fill="white"/>
<path d="M618.555 94.8689V29" stroke="#C7C7C7" stroke-width="2.59156" stroke-linecap="round" stroke-linejoin="round"/>
<path d="M661.82 94.625H584C587.415 100.274 593.535 103.727 600.136 103.727H645.555C652.19 103.727 658.349 100.28 661.82 94.625Z" fill="#FA7D29"/>
<path d="M-124.001 103.946V25.093L-107.049 19.9422C-84.7751 13.1744 -60.8347 14.4216 -39.385 23.4673C-31.5511 26.771 -23.3264 29.0581 -14.9115 30.2728L7.75287 33.5446C15.7629 34.7009 23.3989 37.6874 30.0679 42.2724C38.8484 48.309 49.2533 51.5407 59.9088 51.5407H64.5968C74.0787 51.5407 83.4551 53.5305 92.1197 57.3814L92.6091 57.5989C101.15 61.3951 110.363 63.4496 119.708 63.6423L156.432 64.3995C169.982 64.6788 183.197 68.6639 194.643 75.9222C205.625 82.8868 218.245 86.8429 231.239 87.394L254.365 88.3749C265.956 88.8665 277.38 91.3102 288.157 95.6032L292.254 97.2351C294.95 98.3089 296.719 100.917 296.719 103.819C296.719 103.889 296.662 103.946 296.592 103.946H-124.001Z" fill="#0C535A"/>
<path fill-rule="evenodd" clip-rule="evenodd" d="M136.095 50.689C137.502 47.8849 141.505 47.8849 142.912 50.689C143.936 52.7289 146.51 53.4188 148.417 52.164C151.037 50.4395 154.503 52.4417 154.32 55.5735C154.187 57.8521 156.072 59.7375 158.351 59.6044C161.483 59.4214 163.483 62.8883 161.759 65.5093C160.505 67.4164 161.194 69.9915 163.234 71.0158C164.632 71.7179 165.333 73.0651 165.337 74.4141H113.67C113.673 73.0651 114.374 71.7179 115.773 71.0158C117.813 69.9915 118.502 67.4164 117.248 65.5093C115.523 62.8883 117.524 59.4214 120.656 59.6044C122.935 59.7375 124.819 57.8521 124.686 55.5735C124.503 52.4417 127.969 50.4395 130.59 52.164C132.496 53.4188 135.071 52.7289 136.095 50.689Z" fill="#183539"/>
<path fill-rule="evenodd" clip-rule="evenodd" d="M12.0489 52.394C13.3438 48.3055 19.1294 48.3055 20.4243 52.394C21.5171 55.8442 26.0794 56.5667 28.1847 53.623C30.6794 50.1349 36.1815 51.9237 36.1499 56.212C36.1233 59.831 40.2391 61.9287 43.151 59.7796C46.6014 57.2331 51.2813 60.6351 49.9264 64.7038C48.783 68.1376 52.049 71.4049 55.4826 70.2609C59.5513 68.9054 62.951 73.5871 60.4052 77.0383C58.2566 79.9509 60.3532 84.0675 63.9724 84.0409C68.2611 84.0093 70.0484 89.5123 66.5604 92.008C63.6169 94.1142 64.339 98.6771 67.7894 99.7705C69.8285 100.417 70.8507 102.18 70.856 103.945H-38.3827C-38.3775 102.18 -37.3553 100.417 -35.3161 99.7705C-31.8657 98.6771 -31.1436 94.1142 -34.0872 92.008C-37.5751 89.5123 -35.7879 84.0093 -31.4991 84.0409C-27.8799 84.0675 -25.7834 79.9509 -27.9319 77.0383C-30.4778 73.5871 -27.0781 68.9054 -23.0093 70.2609C-19.5757 71.4049 -16.3097 68.1376 -17.4532 64.7038C-18.808 60.6351 -14.1282 57.2331 -10.6777 59.7796C-7.76582 61.9287 -3.65008 59.831 -3.67671 56.212C-3.70827 51.9237 1.79387 50.1349 4.28853 53.623C6.39383 56.5667 10.9562 55.8442 12.0489 52.394Z" fill="#183539"/>
</g>
<defs>
<clipPath id="clip0">
<rect width="750" height="104" fill="white"/>
</clipPath>
</defs>
</svg>
