<svg width="1440" height="528" viewBox="0 0 1440 528" fill="none" xmlns="http://www.w3.org/2000/svg">
<g clip-path="url(#clip0_698_13575)">
<rect width="1440" height="528" fill="#E3F8FF"/>
<ellipse cx="1369.39" cy="276.401" rx="47.3683" ry="47.4012" fill="#FEE27D"/>
<path d="M501 543.99H-70V526.466C-70 516.829 -63.8943 508.25 -54.7889 505.093C-46.6384 502.267 -40.8045 495.052 -39.748 486.491L-39.1515 481.656C-37.5266 468.489 -27.3247 458.019 -14.204 456.054C-3.30344 454.421 5.78204 446.856 9.36304 436.432L14.0687 422.734C18.7349 409.15 35.138 403.854 46.8668 412.144C54.3102 417.405 64.2595 417.41 71.7085 412.157L83.8331 403.607C128.318 372.236 190.293 387.81 214.663 436.484L225.091 457.313C231.827 470.767 247.417 477.239 261.701 472.511C270.72 469.525 280.618 470.943 288.436 476.342L293.45 479.804C301.897 485.637 312.969 486.255 322.056 481.48C345.014 469.415 373.644 478.43 385.249 501.624L386.523 504.172C392.466 516.05 406.801 521.017 418.82 515.362L430.044 510.081C452.864 499.344 480.045 505.182 496.444 524.341C499.384 527.776 501 532.148 501 536.669V543.99Z" fill="white"/>
<path d="M1171 371.853H1608V367.742C1608 356.308 1599.84 346.502 1588.6 344.423C1577.76 342.418 1569.73 333.209 1569.22 322.198L1568.93 315.941C1568.06 296.968 1550.76 283.047 1532.04 286.244L1530.06 286.583C1519.1 288.454 1507.93 284.747 1500.26 276.696L1497.95 274.267C1482.97 258.535 1458.12 257.773 1442.21 272.559L1428.03 285.728C1423.21 290.208 1415.98 290.905 1410.39 287.431C1403.87 283.376 1395.32 285.072 1390.84 291.309L1389.5 293.172C1385.52 298.711 1378.62 301.344 1371.96 299.867L1351.51 295.329C1336.61 292.023 1321.53 300.125 1316.07 314.375C1311.27 326.893 1298.92 334.869 1285.54 334.103L1266.67 333.023C1254.72 332.339 1242.87 335.453 1232.8 341.919L1213.36 354.403C1208.93 357.25 1203.77 358.764 1198.5 358.764H1184.09C1176.86 358.764 1171 364.624 1171 371.853Z" fill="white"/>
<path d="M1153.62 483.754H997V477.012C997 471.834 1002.28 468.332 1007.05 470.345C1010.86 471.951 1015.23 470.051 1016.66 466.174L1017.66 463.433C1019.58 458.205 1025.59 455.769 1030.61 458.18C1035.24 460.404 1040.8 458.519 1043.12 453.939L1044.03 452.133C1054.47 431.54 1083.64 430.869 1095.02 450.96L1095.69 452.15C1098.05 456.318 1103.24 457.931 1107.55 455.834L1107.97 455.629C1118.4 450.546 1130.88 456.213 1133.92 467.412L1134.44 469.329C1135.58 473.503 1140.13 475.72 1144.12 474.039C1148.63 472.134 1153.62 475.447 1153.62 480.346V483.754Z" fill="white"/>
</g>
<defs>
<clipPath id="clip0_698_13575">
<rect width="1440" height="528" fill="white"/>
</clipPath>
</defs>
</svg>
